HIERARCHY
ROOT Hips
{
	OFFSET -14.64140 90.27770 -84.91600
	CHANNELS 6 Xposition Yposition Zposition Zrotation Xrotation Yrotation
	JOINT Spine
	{
		OFFSET 0.00000 13.20850 -1.60436
		CHANNELS 3 Zrotation Xrotation Yrotation
		JOINT Spine1
		{
			OFFSET 0.00000 8.61716 0.00000
			CHANNELS 3 Zrotation Xrotation Yrotation
			JOINT Spine2
			{
				OFFSET 0.00000 8.61717 0.00000
				CHANNELS 3 Zrotation Xrotation Yrotation
				JOINT Spine3
				{
					OFFSET 0.00000 8.61717 0.00000
					CHANNELS 3 Zrotation Xrotation Yrotation
					JOINT Neck
					{
						OFFSET 0.00000 11.07920 1.10792
						CHANNELS 3 Zrotation Xrotation Yrotation
						JOINT Neck1
						{
							OFFSET 0.00000 7.08032 0.00000
							CHANNELS 3 Zrotation Xrotation Yrotation
							JOINT Head
							{
								OFFSET 0.00000 7.08031 0.00000
								CHANNELS 3 Zrotation Xrotation Yrotation
								End site
								{
									OFFSET 0.00000 0.00000 0.00000
								}
							}
						}
					}
					JOINT RightShoulder
					{
						OFFSET -0.01000 7.91373 5.19711
						CHANNELS 3 Zrotation Xrotation Yrotation
						JOINT RightArm
						{
							OFFSET -18.41580 0.00000 0.00000
							CHANNELS 3 Zrotation Xrotation Yrotation
							JOINT RightForeArm
							{
								OFFSET -29.11090 0.00000 0.00000
								CHANNELS 3 Zrotation Xrotation Yrotation
								JOINT RightHand
								{
									OFFSET -24.65040 0.00000 0.00000
									CHANNELS 3 Zrotation Xrotation Yrotation
									JOINT RightHandThumb1
									{
										OFFSET -5.35114 -0.85590 3.97906
										CHANNELS 3 Zrotation Xrotation Yrotation
										JOINT RightHandThumb2
										{
											OFFSET -4.52789 0.00000 0.00000
											CHANNELS 3 Zrotation Xrotation Yrotation
											JOINT RightHandThumb3
											{
												OFFSET -2.46976 0.00000 0.00000
												CHANNELS 3 Zrotation Xrotation Yrotation
												End site
												{
													OFFSET 0.00000 0.00000 0.00000
												}
											}
										}
									}
									JOINT RightHandIndex1
									{
										OFFSET -14.26970 0.00000 2.88139
										CHANNELS 3 Zrotation Xrotation Yrotation
										JOINT RightHandIndex2
										{
											OFFSET -5.48836 0.00000 0.00000
											CHANNELS 3 Zrotation Xrotation Yrotation
											JOINT RightHandIndex3
											{
												OFFSET -3.01859 0.00000 0.00000
												CHANNELS 3 Zrotation Xrotation Yrotation
												End site
												{
													OFFSET 0.00000 0.00000 0.00000
												}
											}
										}
									}
									JOINT RightHandMiddle1
									{
										OFFSET -14.26970 0.00000 -0.09147
										CHANNELS 3 Zrotation Xrotation Yrotation
										JOINT RightHandMiddle2
										{
											OFFSET -6.17441 0.00000 0.00000
											CHANNELS 3 Zrotation Xrotation Yrotation
											JOINT RightHandMiddle3
											{
												OFFSET -3.56743 0.00000 0.00000
												CHANNELS 3 Zrotation Xrotation Yrotation
												End site
												{
													OFFSET 0.00000 0.00000 0.00000
												}
											}
										}
									}
									JOINT RightHandRing1
									{
										OFFSET -12.69180 0.00000 -3.06433
										CHANNELS 3 Zrotation Xrotation Yrotation
										JOINT RightHandRing2
										{
											OFFSET -5.62556 0.00000 0.00000
											CHANNELS 3 Zrotation Xrotation Yrotation
											JOINT RightHandRing3
											{
												OFFSET -3.56744 0.00000 0.00000
												CHANNELS 3 Zrotation Xrotation Yrotation
												End site
												{
													OFFSET 0.00000 0.00000 0.00000
												}
											}
										}
									}
									JOINT RightHandPinky1
									{
										OFFSET -11.11390 0.00000 -6.03719
										CHANNELS 3 Zrotation Xrotation Yrotation
										JOINT RightHandPinky2
										{
											OFFSET -4.52789 0.00000 0.00000
											CHANNELS 3 Zrotation Xrotation Yrotation
											JOINT RightHandPinky3
											{
												OFFSET -2.46976 0.00000 0.00000
												CHANNELS 3 Zrotation Xrotation Yrotation
												End site
												{
													OFFSET 0.00000 0.00000 0.00000
												}
											}
										}
									}
								}
							}
						}
					}
					JOINT LeftShoulder
					{
						OFFSET 0.01000 7.91373 5.19711
						CHANNELS 3 Zrotation Xrotation Yrotation
						JOINT LeftArm
						{
							OFFSET 18.41580 0.00000 0.00000
							CHANNELS 3 Zrotation Xrotation Yrotation
							JOINT LeftForeArm
							{
								OFFSET 29.11090 0.00000 0.00000
								CHANNELS 3 Zrotation Xrotation Yrotation
								JOINT LeftHand
								{
									OFFSET 24.65040 0.00000 0.00000
									CHANNELS 3 Zrotation Xrotation Yrotation
									JOINT LeftHandThumb1
									{
										OFFSET 5.35114 -0.85590 3.97906
										CHANNELS 3 Zrotation Xrotation Yrotation
										JOINT LeftHandThumb2
										{
											OFFSET 4.52789 0.00000 0.00000
											CHANNELS 3 Zrotation Xrotation Yrotation
											JOINT LeftHandThumb3
											{
												OFFSET 2.46977 0.00000 0.00000
												CHANNELS 3 Zrotation Xrotation Yrotation
												End site
												{
													OFFSET 0.00000 0.00000 0.00000
												}
											}
										}
									}
									JOINT LeftHandIndex1
									{
										OFFSET 14.26970 0.00000 2.88139
										CHANNELS 3 Zrotation Xrotation Yrotation
										JOINT LeftHandIndex2
										{
											OFFSET 5.48836 0.00000 0.00000
											CHANNELS 3 Zrotation Xrotation Yrotation
											JOINT LeftHandIndex3
											{
												OFFSET 3.01859 0.00000 0.00000
												CHANNELS 3 Zrotation Xrotation Yrotation
												End site
												{
													OFFSET 0.00000 0.00000 0.00000
												}
											}
										}
									}
									JOINT LeftHandMiddle1
									{
										OFFSET 14.26970 0.00000 -0.09147
										CHANNELS 3 Zrotation Xrotation Yrotation
										JOINT LeftHandMiddle2
										{
											OFFSET 6.17440 0.00000 0.00000
											CHANNELS 3 Zrotation Xrotation Yrotation
											JOINT LeftHandMiddle3
											{
												OFFSET 3.56744 0.00000 0.00000
												CHANNELS 3 Zrotation Xrotation Yrotation
												End site
												{
													OFFSET 0.00000 0.00000 0.00000
												}
											}
										}
									}
									JOINT LeftHandRing1
									{
										OFFSET 12.69180 0.00000 -3.06433
										CHANNELS 3 Zrotation Xrotation Yrotation
										JOINT LeftHandRing2
										{
											OFFSET 5.62556 0.00000 0.00000
											CHANNELS 3 Zrotation Xrotation Yrotation
											JOINT LeftHandRing3
											{
												OFFSET 3.56744 0.00000 0.00000
												CHANNELS 3 Zrotation Xrotation Yrotation
												End site
												{
													OFFSET 0.00000 0.00000 0.00000
												}
											}
										}
									}
									JOINT LeftHandPinky1
									{
										OFFSET 11.11390 0.00000 -6.03719
										CHANNELS 3 Zrotation Xrotation Yrotation
										JOINT LeftHandPinky2
										{
											OFFSET 4.52789 0.00000 0.00000
											CHANNELS 3 Zrotation Xrotation Yrotation
											JOINT LeftHandPinky3
											{
												OFFSET 2.46976 0.00000 0.00000
												CHANNELS 3 Zrotation Xrotation Yrotation
												End site
												{
													OFFSET 0.00000 0.00000 0.00000
												}
											}
										}
									}
								}
							}
						}
					}
					JOINT pCube4
					{
						OFFSET 0.00000 10.91090 1.10792
						CHANNELS 3 Zrotation Xrotation Yrotation
						End site
						{
							OFFSET 0.00000 0.00000 0.00000
						}
					}
				}
			}
		}
	}
	JOINT RightUpLeg
	{
		OFFSET -9.98441 0.00000 0.00000
		CHANNELS 3 Zrotation Xrotation Yrotation
		JOINT RightLeg
		{
			OFFSET 0.00000 -42.11790 0.00000
			CHANNELS 3 Zrotation Xrotation Yrotation
			JOINT RightFoot
			{
				OFFSET 0.00000 -45.00020 -0.00001
				CHANNELS 3 Zrotation Xrotation Yrotation
				JOINT RightForeFoot
				{
					OFFSET 0.00000 -3.74820 0.00000
					CHANNELS 3 Zrotation Xrotation Yrotation
					JOINT RightToeBase
					{
						OFFSET 0.00000 0.06325 14.43120
						CHANNELS 3 Zrotation Xrotation Yrotation
						End site
						{
							OFFSET 0.00000 0.00000 0.00000
						}
					}
				}
			}
		}
	}
	JOINT LeftUpLeg
	{
		OFFSET 9.98441 0.00000 0.00000
		CHANNELS 3 Zrotation Xrotation Yrotation
		JOINT LeftLeg
		{
			OFFSET 0.00000 -42.11800 0.00000
			CHANNELS 3 Zrotation Xrotation Yrotation
			JOINT LeftFoot
			{
				OFFSET 0.00000 -45.00070 0.00000
				CHANNELS 3 Zrotation Xrotation Yrotation
				JOINT LeftForeFoot
				{
					OFFSET 0.00000 -3.74824 0.00000
					CHANNELS 3 Zrotation Xrotation Yrotation
					JOINT LeftToeBase
					{
						OFFSET 0.00000 0.06325 14.43110
						CHANNELS 3 Zrotation Xrotation Yrotation
						End site
						{
							OFFSET 0.00000 0.00000 0.00000
						}
					}
				}
			}
		}
	}
}
MOTION
Frames: 4
Frame Time: 0.050000
-0.022576147851928484 -0.012229688506831657 -0.0242959210430714 0.01590390953149488 0.009980568008486297 0.028541674412678332 -3.7016289058624356 2.128530048800887 -0.7826954914043466 -1.1860663707780967 3.92795464528756 0.40461839374118536 -1.3958762105159825 -1.4392564893887894 -1.3461648960624717 0.18002885924403386 0.664281054205608 -0.8670588171253631 0.018393351373136118 11.346537661119664 -0.7801076599600177 0.13787294347478368 -2.0152127534113906 -3.462075808827663 0.6961501562058542 -18.590188452207567 -0.3541951494534734 -4.675361750918379 1.6926272441050398 -14.894738305821356 74.51859755568782 24.38747330368034 -0.016480032414642156 -2.5911452155767796 1.8263515668972734 40.29473934359305 19.64190157319884 -0.09581028977148148 -3.7223557670668517 4.494957920177507 -0.1402261679189734 -1.5786197470999188 -0.04108875130458303 -0.013521526752733395 -56.275052571376555 0.017338230630318988 -0.020794574008233042 -56.2653030055514 -38.76184794375292 -0.01729319958647318 -0.003879821578704206 -0.006929826739859019 0.037157448112548556 0.03411756699111825 -0.006879618817278894 0.024593705765283327 -0.019034825272943007 -36.65937852030807 -0.04196081667267372 0.03622105218384986 0.02192228781122612 0.045465681872389446 -0.008059041794000719 0.013996692028128135 -0.0056339798542609 -0.04489894884079694 -19.712029415826755 0.04479890760636982 0.018116527814181035 -0.018299920619365383 0.023156050244025384 -0.04943824619542002 -0.019287843097179846 0.020650701661721466 -0.030931838294439302 24.009270485369044 0.033379036135579646 -0.0030207747224482435 28.840062524345292 0.03062907013629523 -0.0434319780257786 28.86324589292392 0.00018486929022069567 -0.03671164533443369 5.045895577712917 1.1661495215307696 12.848256664444765 -71.79741188574347 26.753500238771174 -6.170434923443057 1.4229193476626671 -7.697023167462708 -40.71950296517816 -8.342290168230736 1.468620482672573 2.499632186063874 -0.4466913505860511 0.07930479620133611 -8.163356927852757 -0.024510579557891352 0.033132881723009655 44.55125610327177 -0.0018298186068129321 -0.0038547378396059243 44.55232674603809 12.467416742750045 0.024341246136938277 0.03878456716757594 -0.04513680060741689 0.03149493745705735 0.03605951846010277 -0.022651781443386927 0.012657508282841946 0.03056617037845089 11.134984933502801 0.005503911135841211 -0.040948940303826765 0.03519463569684719 -0.0004069555655303431 0.03842161551224305 -0.04500643631704007 0.0074487064414506645 -0.015114900444388945 4.736878059635456 -0.029293150933239837 -0.011250959340994978 -0.021736987408107422 0.03019216896799472 0.004195662631118674 -0.04675841622047114 0.012293140308073531 -0.011712365146478132 -5.624160163121952 -0.025087108537715022 -0.005479626970047759 -6.766488383343728 -0.03829310871225381 -0.044981441167966374 -6.764670128502604 -0.029863721892772234 0.013071512945281825 -0.0024208246498211615 -0.0017789379894700297 0.041700388549647215 8.028924296101312 3.451008949082087 -19.229808020618602 0.0356816104719144 10.3966576196155 0.05609381409355635 -5.603921652131996 -15.701863434941151 3.196277451104348 0.022478772560083495 0.02570502906053578 -0.030142140696658656 0.006849535733965708 4.66558217998146 0.0324967419861526 12.429471936626706 -8.213337930574003 6.926853584381422 -0.0441177324476081 46.39708050339838 0.03869564939860832 -4.296117603132155 -14.742315838336122 -3.7994909994926642 -0.014776999275087842 0.022053497526833967 -0.0010090837840722629 -0.040071158380647315 -10.763462282220521 0.03220273358354507 
-0.001276261141893247 0.024441955781130585 -0.014763839129154436 0.011132968164503387 -0.012627048599017183 -0.013076378183940343 -3.5818167081177847 2.238303464576125 -0.7795025804761803 -1.146145097225067 3.890739196055726 0.4090632901017434 -1.3082330258602324 -1.4284892879616935 -1.2251067425448463 0.18421043365568224 0.6630119583177451 -0.8626860997700546 -0.010609730291763084 11.39959064475494 -0.7875614851432269 0.2149364223787596 -1.902804136819588 -3.4038190563917508 0.6445319271521742 -18.440599847637365 -0.3632204516372645 -4.659671581766201 1.6355799947480034 -14.773004912478804 73.95482315736452 24.40167175626686 0.6173961712073714 -2.443912521573688 1.6534357645873239 42.158704347551854 19.784975107949702 -0.1672666375601512 -3.7978003051114584 4.541357036312463 -0.13655742240556668 -1.6204859263495879 0.042369714592241585 -0.010925733743842809 -56.26642506965644 -0.011623861381766486 0.04983232069676359 -56.25536369311337 -38.749466037698895 0.01940888393723267 0.022402121908563718 -0.004606897251576771 -0.020425885053775714 -0.01694512224266101 -0.02038372468116935 0.0023683512408736863 0.013942045417254054 -36.718733082745125 0.028603912964284106 -0.019560027571210704 0.013788839696379175 -0.014661772761508372 -0.03733370814956582 0.0019304520928043545 -0.006200516081225412 -0.04725767111131164 -19.73660395970832 0.022649914418811146 0.03751108883274776 -0.012267210279448196 -0.04972901786933878 0.007038393596989896 0.02097086889046026 0.036190096914616963 -0.0058181057293053996 24.028320982142898 0.01686564226812782 0.003222318038731853 28.83557762948524 -0.015548825380668525 -0.01878890050793316 28.85761758898624 0.03388169759475854 0.04195454213306298 5.118757561359351 1.252738885323121 12.837219874604967 -71.53838512030839 26.648279203839714 -6.56185816726053 1.6641602462417124 -7.850567922900014 -42.62604527798413 -8.44114721391072 1.4971016035841243 2.3844358719688787 -0.45751816109473303 0.11637602486136114 -8.135084979261391 0.03877154779245865 0.03871792383142723 44.55252602532802 -0.008958542584894959 -0.006847731263840634 44.5582557292061 12.474706456235461 0.002011997630378495 0.013504118346468011 0.019403715616553293 0.01825116994947732 -0.015890151649041694 0.002647871200616072 -0.007317724302884131 -0.04165530483221578 11.122992853261648 -0.01547232192864546 -0.024746337201070334 -4.198034216604909e-05 -0.023763213083905485 0.0037806516414934732 -0.038024979182919146 -0.027362178202445814 -0.03282613537250429 4.731219026537769 -0.006498753404767258 -0.018471604029859746 -0.02291220172020186 -0.014521777241291035 0.018966105663180664 -0.011607743368207874 0.023658537591499797 0.0490147345180101 -5.588323998353348 0.014881362705082548 -0.015228023382338174 -6.744301201867658 -0.036358045793247654 0.019511051754995103 -6.726399855307016 -0.022464395152341287 -0.04746005443955613 0.04701594452368441 -0.04417661033456727 -0.016459040635566653 8.08660817199802 3.471604747245242 -19.2097590652437 -0.0432619000163051 10.40480727266138 0.005206175123845849 -5.669922668847279 -15.66368935466051 3.2237523752448265 -0.024654198871083974 -0.04541059062429004 0.0027862798798875855 -0.0011719344368266004 4.682359819769513 -0.001896995236619602 12.434529015501475 -8.255077235551031 6.880458956654749 0.009179783846930679 46.33565022038363 0.0033721400113309943 -4.318033673216974 -14.749602668646833 -3.806620744138882 -0.021967917444742174 -0.04752239943687446 -0.03810293853777867 -0.01844215548979977 -10.773000100947195 -0.01768696472020372 
0.03548893394925875 0.043970428836218184 0.013442474496474477 -0.02932493155485337 -0.015588813553696283 0.033729409606832586 -3.3811162976479134 2.2040589189331574 -0.7677651884963479 -1.1867598313901047 3.9030781058214528 0.3767668324747388 -1.37982439781587 -1.4622210667364608 -1.1487773733767699 0.21706186169013603 0.6282038231875056 -0.8582845447350901 0.017810099160264964 11.60502743407093 -0.7413432011802296 0.13920010046367925 -1.7340876589969607 -3.651352921254965 0.7236281713352808 -18.123139651068122 -0.3508638627744613 -4.689596776776528 1.642321588998044 -14.55978545019582 73.21122647217874 24.312700196276328 1.779620894457686 -1.719991515819264 1.4739923638278043 45.30204926435912 19.7436705292035 -0.16367634603723236 -3.8224256845095153 4.568091389575815 -0.13658565751505564 -1.548291574592994 -0.001280886838384219 0.037174858968188 -56.25467063369618 0.0026975487189402968 0.01841781632023248 -56.27266018027022 -38.77276714004245 -0.0027674586296251827 0.04586360217007659 0.028440265442156585 -0.0341752652295734 -0.04245259154072425 0.019134895074149724 0.046884937817537095 0.027161856680338922 -36.66989641198071 0.014367267771509956 0.015606333699851706 0.004290159409351186 0.049969989673444855 -0.020711431892037363 -0.018811176923695924 -0.01676385148615177 -0.048955367093376514 -19.787134995724458 -0.02550039731512074 0.005264404751948711 -0.04719043236855468 -0.022017432316066444 0.002821527553026712 0.0026396780649164757 0.028647788399262096 -0.031697796796556814 24.046573705684043 0.03642700076616673 -0.010740515461353137 28.882034820429237 -0.02952154607254677 0.043031413319842574 28.906300009111384 0.010074183665152182 -0.03203106523496196 5.261419522535884 1.2364202026510795 12.801213204785133 -70.6423990894322 26.709738618609297 -7.612713886409264 0.6910498222039315 -7.7002842548863395 -46.7964677353554 -8.52033231736194 1.055110132632935 2.45248339695724 -0.5220339581664488 0.041482961251848444 -8.09531407895178 -0.005996588988568693 0.030889502477794404 44.581941417736225 0.009259892255369464 -0.03903819344313856 44.5217839961477 12.48121587289629 0.04201703564862046 -0.029180474444461077 -0.022131434241524594 -0.015486637752547695 0.016560096376302735 0.03215872876079199 0.02620820358180759 0.0089012587876637 11.070617450589863 -0.028800556146966444 -0.000620881510989739 -0.027277634112731944 -0.02473726743653927 0.027105945314096495 -0.0012972907254632188 0.02104650425278177 -0.0020346747168543075 4.804428053337073 0.02722223893695578 0.024036317944973365 -0.005686122478951355 0.039115645923628886 -0.041359953957078824 0.03535694321918784 0.03077435347224882 0.008415564593269937 -5.576116512686133 -0.044407874549919304 0.01714792396728073 -6.714329266798302 -0.03197975504730481 -0.023624735394905314 -6.760601739163956 0.00773904795360285 0.003801983631529789 0.007705642042365837 -0.020428090168901483 0.0485094141358758 8.020546566211038 3.4973655983185727 -19.216220896741827 -0.011050496644489418 10.440544828477556 -0.020250901285966825 -5.582916922532305 -15.691409146851663 3.1969824600015935 -0.013971445432240662 -0.016868628932925768 0.02924087354497155 0.040031689491059765 4.681608450345846 0.002192777657044971 12.504003840839964 -8.271465949892857 6.892478189573848 -0.012452440807752981 46.380087038201935 0.03104464203691674 -4.29020440742216 -14.766506466065975 -3.8415973131895638 -0.03837613572122389 -0.013968105425284974 0.020331585956634958 0.004166437101380757 -10.711965356965104 0.0046658902075594165 
-0.013447909978236146 0.04886237284619147 -0.04903626468212719 0.03242983236909968 -0.02964662566530752 0.03262578530354212 -3.1909612228291766 2.165025358686354 -0.7407251616397833 -1.1199530307679069 3.8183267451384637 0.3945709614147112 -1.3130911626963797 -1.4684408967538096 -1.2033409399269959 0.15181148602484518 0.5720646773741153 -0.8255105480584268 0.08023880335108169 11.640856032034549 -0.8364220226962001 0.24333561835160522 -1.4320900987132343 -3.8894770905607916 0.6970717528845796 -17.628464332684263 -0.3378963542560482 -4.666825147766731 1.6457888671250862 -14.389464347615897 72.60550078295475 24.14643701190399 2.932722258860581 -0.1757645775835791 1.2827674126089685 49.60299145112688 19.421243118991228 -0.15293784797772594 -3.7874490513576893 4.559975281847672 -0.08775964846758535 -1.5441518235615757 -0.023355087254945735 0.04158865242726449 -56.21508078669505 -0.02409392909573591 -0.047293754990873904 -56.213627447983065 -38.74579056185314 0.03291821059407193 0.037015325754135846 0.018199163293427186 0.038130723673519135 0.028377229937150087 0.03519621506533686 0.010146946369784575 -0.03388117426799928 -36.738186287329704 0.006696431903364369 -0.023807814989943374 -0.03280256300049297 0.009951651441223085 0.04190288912723342 -0.020221863353470516 0.014459094253212073 0.04587558913852916 -19.750637928095863 0.030942059278048547 -0.02489144826366812 -0.03730710405508441 -0.021617788765749307 0.04819659724577168 -0.037994137220558485 -0.01783924670461436 -0.0007507016764213015 24.007556299500692 -0.014400080623316266 -0.04250510633056844 28.894121505581822 0.009961187871227932 -0.03515481886910408 28.899822642320515 -0.003927893055280241 0.009615294644301744 5.467408622802265 1.3166474363552378 12.660381945951094 -69.35605708722761 27.163972761060776 -8.929545919182157 -1.703710773063224 -6.978123695196458 -53.80125390837958 -8.74002497157929 -0.039605880467904794 2.807064032548259 -0.46137721036827184 0.04501969208512735 -8.094621261750921 -0.012010648385335247 0.047590242264428456 44.554513131063146 -0.012353852485207014 0.00928631859450888 44.57269076525295 12.463725079567814 -0.03106544044623088 -0.006219019965690431 0.03645394722083279 0.02173172319266339 0.019368677257637006 0.0030579022662802187 -0.012756005575925256 -0.005113768196785269 11.069175389641398 0.032034377528525594 -0.02524443678398648 0.01861450273205808 -0.03396531782596196 -0.00933503063065789 -0.045098120137805335 -0.007373037899896931 0.01733858789999974 4.788829055820154 -0.035924276111226824 0.007260644459341038 0.005115370894740381 -0.017741467980824065 0.046882522196731724 0.046959742754810685 -0.019557724169921017 0.045557081693416594 -5.589436744367786 -0.024992763364123864 0.04005312975449327 -6.706512503084635 -0.033027770298527936 -0.025377050575044212 -6.686539695370566 -0.03344138494726435 -0.003566914900498764 -0.022067630376881878 0.003972780189827645 -0.02633322339468921 8.033298421046766 3.4486420567651646 -19.179681200461925 0.00014451813300778144 10.353997967794767 0.050931793407316 -5.6536868277383325 -15.701603894178172 3.237925537658882 0.03402197296528864 -0.022599830452966086 0.0170523092716403 0.04445830543890594 4.6720774955955955 -0.013860564113204613 12.460695184954718 -8.243169423648427 6.912105546843996 -0.0015641447562815883 46.39085889003123 -0.006459298185496707 -4.3724302655522225 -14.769603223112044 -3.8447662634508086 0.016748579902157952 -0.02010236667873272 0.0072143951787854025 0.002117190127557243 -10.77243054205202 0.02457402738462127 
